<?xml version="1.0" encoding="utf-8"?>
<!-- Generator: Adobe Illustrator 25.1.0, SVG Export Plug-In . SVG Version: 6.00 Build 0)  -->
<svg version="1.1" id="Ebene_1" xmlns="http://www.w3.org/2000/svg" xmlns:xlink="http://www.w3.org/1999/xlink" x="0px" y="0px"
	 viewBox="0 0 108.9 108.9" style="enable-background:new 0 0 108.9 108.9;" xml:space="preserve">
<style type="text/css">
	.st0{fill:none;}
	.st1{fill:#080808;}
</style>
<g>
	<circle class="st0" cx="54.5" cy="54.5" r="37.2"/>
	<path class="st1" d="M23.8,33.8c-0.7,1-1.4,1.7-2.2,2.2c-0.8,0.5-1.7,0.8-2.5,0.9l-0.5-2.7c1.4-0.2,2.5-0.8,3.2-2
		c0.4-0.6,0.6-1.1,0.5-1.6s-0.3-0.8-0.7-1.1c-0.3-0.2-0.6-0.3-1-0.3c-0.3,0-0.7,0.3-1.1,0.8l-0.9,1c-1,1.1-1.9,1.7-2.9,1.9
		c-1,0.2-1.9-0.1-2.9-0.7c-0.5-0.3-0.9-0.8-1.2-1.2c-0.3-0.5-0.5-1-0.5-1.6c-0.1-0.6,0-1.2,0.2-1.8c0.2-0.6,0.5-1.3,1-2
		c0.6-0.9,1.2-1.5,1.9-2c0.7-0.5,1.5-0.8,2.3-0.9l0.5,2.8c-0.5,0.1-1,0.2-1.4,0.5c-0.5,0.3-0.9,0.7-1.3,1.3c-0.4,0.6-0.6,1-0.5,1.4
		c0,0.4,0.2,0.7,0.5,1c0.4,0.3,0.7,0.3,1.1,0.3c0.3-0.1,0.7-0.4,1.1-0.8l0.9-1c1-1,1.9-1.7,2.9-1.9c0.9-0.2,1.9,0,2.9,0.7
		c0.5,0.4,1,0.8,1.3,1.3c0.3,0.5,0.5,1.1,0.6,1.7c0.1,0.6,0,1.2-0.2,1.9C24.6,32.4,24.3,33.1,23.8,33.8z"/>
	<path class="st1" d="M28.6,13.7l6.2,9.2l-2.5,1.7l-6.2-9.2l-3.1,2.1l-1.5-2.2l8.6-5.8l1.5,2.2L28.6,13.7z"/>
	<path class="st1" d="M42.5,4.9l1.6,8.3c0.2,1,0.5,1.6,1,2c0.5,0.4,1.1,0.5,2,0.3c0.9-0.2,1.5-0.5,1.7-1.1c0.3-0.5,0.3-1.3,0.2-2.2
		L47.3,4l2.9-0.5l1.5,8c0.2,1,0.3,1.9,0.2,2.6s-0.2,1.4-0.6,2c-0.3,0.6-0.8,1-1.4,1.4c-0.6,0.4-1.4,0.6-2.4,0.8
		c-1,0.2-1.8,0.2-2.5,0.1c-0.7-0.1-1.3-0.3-1.8-0.7c-0.5-0.4-0.9-0.9-1.3-1.6c-0.3-0.7-0.6-1.5-0.8-2.5l-1.5-8L42.5,4.9z"/>
	<path class="st1" d="M61.7,3.8l5,1.3c0.9,0.2,1.6,0.6,2.3,1c0.7,0.5,1.2,1,1.5,1.7c0.4,0.7,0.6,1.5,0.7,2.4c0.1,0.9,0,1.9-0.3,3
		c-0.3,1.1-0.7,2-1.2,2.8c-0.5,0.8-1.1,1.4-1.7,1.8c-0.6,0.4-1.4,0.7-2.2,0.8c-0.8,0.1-1.6,0-2.5-0.2l-5-1.3L61.7,3.8z M64,15.8
		c0.9,0.2,1.6,0.1,2.2-0.2s1.1-1.1,1.3-2.1l0.5-2.1c0.3-1.1,0.2-1.9-0.2-2.5c-0.4-0.6-1-1-1.9-1.2l-2.1-0.5l-2.1,8.2L64,15.8z"/>
	<path class="st1" d="M73.3,22.2l1.4-1.9l1.4,1l5.2-7.3l-1.4-1l1.4-1.9l5.3,3.8l-1.4,1.9l-1.4-1l-5.2,7.3l1.4,1L78.6,26L73.3,22.2z"
		/>
	<path class="st1" d="M85.4,34.2c-0.5-0.8-0.8-1.5-1-2.3c-0.2-0.8-0.1-1.6,0.1-2.3s0.6-1.5,1.2-2.2c0.6-0.7,1.4-1.4,2.3-2
		c1-0.6,1.9-1.1,2.8-1.3c0.9-0.2,1.7-0.3,2.5-0.2c0.8,0.1,1.5,0.4,2.2,0.9c0.7,0.5,1.2,1.1,1.7,1.8c0.5,0.8,0.8,1.5,1,2.3
		c0.2,0.8,0.1,1.6-0.1,2.3c-0.2,0.8-0.6,1.5-1.2,2.2c-0.6,0.7-1.4,1.4-2.3,2c-1,0.6-1.9,1.1-2.8,1.3s-1.7,0.3-2.5,0.2
		c-0.8-0.1-1.5-0.4-2.2-0.9C86.4,35.6,85.9,35,85.4,34.2z M87.6,32.8c0.5,0.8,1.1,1.2,1.9,1.3c0.8,0.1,1.6-0.2,2.5-0.8l1.7-1.1
		c0.9-0.6,1.5-1.3,1.7-2c0.2-0.7,0.1-1.5-0.4-2.3c-0.5-0.8-1.1-1.2-1.9-1.3c-0.8-0.1-1.6,0.2-2.5,0.8l-1.7,1.1
		c-0.9,0.6-1.5,1.3-1.7,2C87,31.3,87.1,32,87.6,32.8z"/>
	<path class="st1" d="M91.1,59.1c0.1-0.9,0.3-1.7,0.7-2.5c0.4-0.7,0.9-1.3,1.5-1.8c0.6-0.5,1.4-0.8,2.3-1s1.9-0.2,3.1-0.1
		c1.1,0.1,2.2,0.4,3,0.8c0.9,0.4,1.6,0.9,2.1,1.5c0.5,0.6,0.9,1.3,1.2,2c0.2,0.8,0.3,1.6,0.2,2.6c-0.1,1.3-0.5,2.3-1.1,3
		c-0.6,0.8-1.5,1.3-2.7,1.7l-1.1-2.7c0.6-0.1,1.1-0.4,1.5-0.7c0.4-0.3,0.6-0.9,0.7-1.6c0.1-0.9-0.1-1.6-0.6-2.2s-1.3-0.9-2.4-1.1
		l-2.2-0.2c-1.1-0.1-1.9,0.1-2.6,0.5c-0.6,0.5-1,1.1-1.1,2c-0.1,0.7,0.1,1.3,0.4,1.8c0.3,0.5,0.8,0.9,1.3,1.1l-1.7,2.3
		c-1-0.6-1.7-1.4-2.2-2.3S91,60.4,91.1,59.1z"/>
	<path class="st1" d="M86.3,73.2c0.5-0.8,1-1.4,1.6-1.9c0.6-0.5,1.3-0.8,2.1-1c0.8-0.2,1.6-0.1,2.5,0.1c0.9,0.2,1.9,0.6,2.9,1.2
		c1,0.6,1.8,1.2,2.4,1.9c0.6,0.7,1.1,1.4,1.3,2.2s0.3,1.5,0.2,2.3s-0.4,1.6-0.9,2.4c-0.5,0.8-1,1.4-1.6,1.9c-0.6,0.5-1.3,0.8-2.1,1
		c-0.8,0.2-1.6,0.1-2.5-0.1c-0.9-0.2-1.9-0.6-2.9-1.2c-1-0.6-1.8-1.2-2.4-1.9c-0.6-0.7-1.1-1.4-1.3-2.2c-0.2-0.8-0.3-1.5-0.2-2.3
		C85.6,74.7,85.9,73.9,86.3,73.2z M88.6,74.5c-0.5,0.8-0.6,1.5-0.3,2.3c0.3,0.7,0.9,1.4,1.8,1.9l1.8,1c1,0.6,1.8,0.8,2.6,0.6
		c0.8-0.1,1.4-0.6,1.8-1.4c0.5-0.8,0.6-1.5,0.3-2.3s-0.9-1.4-1.8-1.9l-1.8-1c-1-0.6-1.8-0.8-2.6-0.6C89.7,73.3,89.1,73.7,88.6,74.5z
		"/>
	<path class="st1" d="M80.1,89.9l2.6,1.5l0,0l-5.2-7.7l2.3-1.6l7.7,11.4l-2.7,1.8l-6.8-3.3l-2.6-1.5l0,0l5.2,7.7l-2.3,1.6l-7.7-11.4
		l2.7-1.8L80.1,89.9z"/>
	<path class="st1" d="M62.3,97.5L64,100l0.1,0l-1.4-9.1l2.8-0.4l2,13.6l-3.2,0.5l-4.7-5.9l-1.7-2.5l-0.1,0l1.4,9.1l-2.8,0.4l-2-13.6
		l3.2-0.5L62.3,97.5z"/>
	<path class="st1" d="M48.7,91.5L45,104.7l-9-2.5l0.7-2.6l6.1,1.7l0.8-2.7l-5.2-1.5l0.7-2.6l5.2,1.5l0.8-2.9L39,91.5l0.7-2.6
		L48.7,91.5z"/>
	<path class="st1" d="M30.9,82.9c0.7,0.6,1.3,1.2,1.7,1.9c0.4,0.7,0.6,1.4,0.7,2.2s-0.1,1.6-0.4,2.5c-0.3,0.9-0.8,1.7-1.6,2.7
		c-0.7,0.9-1.5,1.6-2.3,2.1c-0.8,0.5-1.6,0.9-2.4,1c-0.8,0.2-1.6,0.1-2.4-0.1C23.5,95,22.7,94.6,22,94c-1-0.8-1.7-1.7-2-2.6
		c-0.3-0.9-0.3-2,0-3.2l2.9,0.6c-0.2,0.6-0.3,1.1-0.2,1.6c0.1,0.5,0.4,1,1,1.5c0.7,0.5,1.4,0.8,2.2,0.6c0.8-0.1,1.5-0.6,2.2-1.4
		l1.4-1.7c0.7-0.9,1-1.7,0.9-2.4c-0.1-0.8-0.4-1.4-1.1-2c-0.6-0.5-1.2-0.7-1.8-0.6c-0.6,0-1.1,0.2-1.7,0.5l-1-2.6
		c1.1-0.5,2.1-0.7,3.1-0.6C28.9,81.7,29.9,82.1,30.9,82.9z"/>
	<path class="st1" d="M11.4,76.3l9.7-5.3l1.4,2.6l-9.7,5.3l1.8,3.3l-2.3,1.3l-5-9.2l2.3-1.3L11.4,76.3z"/>
	<path class="st1" d="M16.9,53.9l1.1,9.7l-2.7,0.3l-4.1-3.8c-0.4-0.3-0.7-0.6-1-0.9C10,59,9.7,58.8,9.4,58.7
		c-0.3-0.1-0.5-0.2-0.8-0.3c-0.3,0-0.5,0-0.8,0l-0.3,0c-0.3,0-0.5,0.1-0.7,0.2c-0.2,0.1-0.3,0.3-0.4,0.5c-0.1,0.2-0.2,0.4-0.2,0.6
		c0,0.2,0,0.4,0,0.7c0,0.3,0.1,0.6,0.3,0.8c0.1,0.2,0.3,0.4,0.5,0.6c0.2,0.2,0.4,0.3,0.7,0.4c0.2,0.1,0.5,0.2,0.8,0.2l-0.7,2.7
		c-0.5-0.1-1-0.3-1.4-0.5c-0.5-0.2-0.9-0.5-1.2-0.9c-0.4-0.4-0.7-0.8-0.9-1.4s-0.4-1.2-0.5-1.9c-0.1-0.7-0.1-1.4,0.1-2
		c0.1-0.6,0.4-1.1,0.7-1.6c0.3-0.4,0.7-0.8,1.2-1.1s1-0.4,1.6-0.5c0.6-0.1,1.1,0,1.6,0.1c0.5,0.1,1,0.3,1.5,0.6
		c0.5,0.3,0.9,0.6,1.3,1c0.4,0.4,0.9,0.8,1.3,1.3l2.3,2.3l-0.8-6.4L16.9,53.9z"/>
</g>
<g>
</g>
<g>
</g>
<g>
</g>
<g>
</g>
<g>
</g>
<g>
</g>
</svg>
